<?xml version="1.0" encoding="UTF-8" standalone="no"?>
<svg
   height="24px"
   viewBox="0 0 24 24"
   width="24px"
   fill="#000000"
   version="1.1"
   id="svg14"
   sodipodi:docname="pets_black_24dp.svg"
   inkscape:version="1.1.2 (b8e25be833, 2022-02-05)"
   xmlns:inkscape="http://www.inkscape.org/namespaces/inkscape"
   xmlns:sodipodi="http://sodipodi.sourceforge.net/DTD/sodipodi-0.dtd"
   xmlns="http://www.w3.org/2000/svg"
   xmlns:svg="http://www.w3.org/2000/svg">
  <defs
     id="defs18" />
  <sodipodi:namedview
     id="namedview16"
     pagecolor="#ffffff"
     bordercolor="#666666"
     borderopacity="1.0"
     inkscape:pageshadow="2"
     inkscape:pageopacity="0.0"
     inkscape:pagecheckerboard="0"
     showgrid="false"
     inkscape:zoom="6.415521"
     inkscape:cx="1.1690399"
     inkscape:cy="21.510334"
     inkscape:window-width="1858"
     inkscape:window-height="1057"
     inkscape:window-x="54"
     inkscape:window-y="-8"
     inkscape:window-maximized="1"
     inkscape:current-layer="svg14" />
  <circle
     cx="4.5"
     cy="9.5"
     r="2.5"
     id="circle4"
     style="fill:#000000" />
  <circle
     cx="9"
     cy="5.5"
     r="2.5"
     id="circle6"
     style="fill:#000000" />
  <circle
     cx="15"
     cy="5.5"
     r="2.5"
     id="circle8"
     style="fill:#000000" />
  <circle
     cx="19.5"
     cy="9.5"
     r="2.5"
     id="circle10"
     style="fill:#000000" />
  <path
     d="M17.34 14.86c-.87-1.02-1.6-1.89-2.48-2.91-.46-.54-1.05-1.08-1.75-1.32-.11-.04-.22-.07-.33-.09-.25-.04-.52-.04-.78-.04s-.53 0-.79.05c-.11.02-.22.05-.33.09-.7.24-1.28.78-1.75 1.32-.87 1.02-1.6 1.89-2.48 2.91-1.31 1.31-2.92 2.76-2.62 4.79.29 1.02 1.02 2.03 2.33 2.32.73.15 3.06-.44 5.54-.44h.18c2.48 0 4.81.58 5.54.44 1.31-.29 2.04-1.31 2.33-2.32.31-2.04-1.3-3.49-2.61-4.8z"
     id="path12"
     style="fill:#000000" />
</svg>
